<svg xmlns="http://www.w3.org/2000/svg" width="199" height="278" viewBox="0 0 199 278" version="1.1"><path d="M 59.436 14.428 C 35.446 27.274, 25.908 33.792, 19.386 41.799 C 13.910 48.521, 8.418 59.121, 5.810 68 C 3.758 74.988, 2.081 97.003, 3.601 96.995 C 4.096 96.993, 8.100 93.908, 12.500 90.140 C 16.900 86.372, 21.480 82.979, 22.679 82.600 C 24.236 82.107, 27.662 83.313, 34.679 86.824 C 50.946 94.962, 55.426 96.260, 65.843 95.853 C 73.083 95.569, 75.412 95.086, 77.678 93.395 C 82.921 89.485, 84.432 85.492, 84.826 74.507 C 85.303 61.215, 83.077 54.841, 75.246 47.075 C 69.858 41.732, 69.785 41.582, 70.400 37.075 C 71.190 31.278, 76.509 20.091, 81.791 13.114 C 85.674 7.986, 85.795 7.616, 84.319 5.364 C 83.467 4.064, 82.259 3.034, 81.635 3.075 C 81.011 3.115, 71.021 8.225, 59.436 14.428 M 114.655 4.829 C 112.437 7.280, 112.472 7.429, 116.547 12.765 C 121.895 19.770, 127.223 31.268, 127.773 36.993 C 128.252 41.977, 128.218 42.049, 122.821 47.256 C 118.258 51.660, 117.013 53.671, 115.050 59.806 C 113.029 66.125, 112.803 68.281, 113.379 75.776 C 114.227 86.801, 116.137 90.798, 122 93.817 C 125.973 95.863, 127.612 96.093, 136 95.777 C 145.388 95.423, 145.669 95.338, 159.808 88.575 C 176.415 80.632, 174.928 80.529, 186.206 90.404 C 190.349 94.032, 194.022 97, 194.369 97 C 194.716 97, 195 92.585, 195 87.188 C 195 64.009, 184.702 43.672, 166.121 30.157 C 160.013 25.714, 151.991 21, 150.540 21 C 150.243 21, 149.907 26.962, 149.793 34.250 L 149.586 47.500 149.043 33.500 L 148.500 19.500 142 16.144 C 138.425 14.299, 131.483 10.586, 126.574 7.894 C 121.665 5.202, 117.347 3, 116.979 3 C 116.611 3, 115.565 3.823, 114.655 4.829 M 89.063 10.750 C 81.940 17.893, 75.509 29.040, 74.342 36.263 C 73.779 39.747, 74.102 40.415, 78.711 45.288 C 85.949 52.941, 88.420 59.836, 88.465 72.500 C 88.521 88.483, 84.636 95.596, 74.194 98.632 C 64.238 101.526, 55.375 100.202, 40.502 93.598 C 33.567 90.519, 27.355 88.002, 26.697 88.004 C 26.038 88.006, 24.027 88.906, 22.226 90.004 C 20.425 91.102, 18.351 92, 17.617 92 C 15.627 92, 7.165 99.780, 5.361 103.268 C 0.929 111.839, 3.157 133.021, 9.630 143.857 C 13.626 150.546, 23.439 160.306, 29.392 163.512 C 32.753 165.322, 33.084 165.331, 36.492 163.705 C 44.519 159.878, 56.389 163.243, 58.694 170 C 60.179 174.357, 60.306 187.690, 58.971 199.335 C 57.738 210.100, 53.306 222.115, 48.494 227.736 C 46.375 230.212, 45 232.879, 45 234.515 C 45 242.390, 53.352 263.164, 58.441 267.944 C 59.744 269.169, 62.541 270.768, 64.655 271.498 C 68.074 272.679, 68.575 272.642, 69.180 271.163 C 70.714 267.409, 69.238 159.905, 67.630 158.297 C 67.406 158.073, 61.210 156.339, 53.862 154.443 C 46.513 152.547, 38.125 150.039, 35.223 148.871 C 27.722 145.850, 22.629 139.729, 19.611 130.107 C 14.979 115.340, 15.278 107.721, 20.542 106.400 C 24.958 105.292, 38.652 108.926, 57.500 116.207 C 79.016 124.518, 93.938 130, 95.048 130 C 95.493 130, 96.564 129.293, 97.429 128.429 C 98.857 127, 99 127.047, 99 128.948 C 99 130.721, 99.417 130.938, 101.750 130.380 C 105.304 129.529, 121.142 123.788, 142.331 115.670 C 161.759 108.226, 174.653 105.065, 178.479 106.808 C 181.793 108.318, 182.561 112.105, 181.183 120.140 C 178.500 135.785, 172.297 145.236, 162.218 149.036 C 159.073 150.222, 150.712 152.699, 143.638 154.541 C 136.565 156.383, 130.620 158.047, 130.427 158.239 C 129.786 158.881, 128.021 224.172, 128.010 247.628 C 128.001 267.474, 128.224 270.941, 129.577 272.064 C 130.892 273.155, 131.734 273.060, 134.656 271.486 C 136.583 270.448, 139.320 268.227, 140.738 266.550 C 144.607 261.975, 149.713 250.544, 152.085 241.148 L 154.194 232.795 151.154 229.648 C 147.461 225.823, 142.626 215.694, 140.490 207.305 C 138.375 199, 137.955 173.792, 139.856 169.288 C 142.569 162.859, 154.525 159.968, 161.982 163.938 L 165.464 165.791 169.586 162.831 C 175.234 158.775, 184.837 147.860, 190.619 138.924 C 195.334 131.638, 195.442 131.295, 196.375 120.495 C 197.572 106.659, 196.512 103.852, 187.769 97.691 C 175.337 88.930, 174.351 88.533, 168.609 89.992 C 165.799 90.705, 160.104 92.776, 155.953 94.594 C 143.555 100.023, 134.057 101.302, 124.330 98.853 C 118.516 97.389, 112.600 91.862, 111.108 86.500 C 106.619 70.374, 110.527 52.988, 120.641 44.085 L 125.170 40.098 123.498 34.299 C 121.399 27.018, 117.122 19.452, 110.834 11.896 C 105.762 5.802, 102.056 3.879, 99.487 6.011 C 98.275 7.017, 98 6.945, 98 5.622 C 98 2.693, 95.888 3.905, 89.063 10.750 M 80.450 6.904 C 79.927 7.401, 70.731 12.404, 60.014 18.022 C 37.866 29.631, 30.109 34.813, 23.088 42.691 C 13.841 53.065, 7 70.347, 7 83.331 L 7 90.168 11.030 86.834 C 18.355 80.775, 21.266 79, 23.880 79 C 25.301 79, 31.872 81.654, 38.482 84.897 C 45.092 88.141, 52.300 91.288, 54.500 91.892 C 60.342 93.494, 69.353 93.243, 74.096 91.345 C 79.335 89.249, 81.079 85.386, 81.704 74.500 C 82.339 63.429, 79.913 56.686, 72.498 48.913 C 67.750 43.935, 67 42.614, 67 39.231 C 67 31.803, 73.425 17.590, 80.682 8.966 C 82.938 6.284, 82.761 4.705, 80.450 6.904 M 116.617 7.100 C 117.103 7.870, 119.686 11.804, 122.358 15.842 C 129.604 26.793, 133.324 38.641, 130.932 43.145 C 130.244 44.440, 127.754 47.202, 125.400 49.282 C 119.286 54.685, 116.621 61.963, 116.710 73.016 C 116.829 87.915, 120.048 91.989, 132.310 92.760 C 140.926 93.301, 147.152 91.451, 162.303 83.848 C 174.716 77.619, 176.720 77.717, 185.044 84.957 C 188.233 87.731, 191.169 90, 191.569 90 C 191.969 90, 192.020 86.411, 191.681 82.025 C 190.531 67.100, 182.966 50.050, 173.151 40.257 C 168.792 35.908, 155.136 26, 153.501 26 C 153.122 26, 152.967 32.431, 153.156 40.291 C 153.484 53.903, 153.646 54.877, 156.580 60.791 C 159.161 65.995, 159.391 67, 158.004 67 C 155.437 67, 152.514 63.163, 149.113 55.332 C 146.156 48.523, 146 47.514, 146 35.151 L 146 22.137 136.250 16.931 C 130.887 14.068, 124.077 10.370, 121.116 8.713 C 118.156 7.056, 116.131 6.330, 116.617 7.100 M 102 67.937 L 102 126.873 110.250 124.037 C 114.787 122.477, 126.814 117.974, 136.975 114.031 C 165.570 102.935, 177.736 100.645, 182.545 105.455 C 189.048 111.957, 182.662 137.846, 172.307 146.961 C 167.524 151.171, 158.279 154.691, 142 158.500 C 137.875 159.466, 134.198 160.536, 133.830 160.878 C 132.679 161.946, 130.626 267.026, 131.734 268.134 C 133.428 269.828, 139.656 262.881, 143.347 255.180 C 145.236 251.238, 147.561 244.830, 148.515 240.940 L 150.248 233.868 147.684 231.184 C 144.654 228.013, 139.434 217.195, 137.350 209.768 C 136.489 206.699, 135.637 197.821, 135.310 188.500 C 134.854 175.497, 135.033 171.822, 136.268 168.882 C 138.269 164.118, 143.409 160.320, 149.674 158.976 C 153.991 158.051, 155.607 158.181, 160.560 159.853 L 166.377 161.817 174.718 153.247 C 179.305 148.534, 185.020 141.488, 187.418 137.589 C 191.325 131.236, 191.900 129.487, 192.963 120.733 C 194.042 111.846, 193.985 110.635, 192.324 107.281 C 190.566 103.727, 186.017 99.835, 177.419 94.527 C 173.441 92.072, 173.208 92.046, 168.281 93.509 C 165.500 94.335, 160.586 96.191, 157.362 97.634 C 148.643 101.536, 142.356 102.976, 134 102.983 C 120.432 102.994, 114.173 99.846, 109.609 90.716 C 105.549 82.595, 104.795 69.317, 107.828 59.359 C 110.230 51.471, 114.727 43.881, 118.437 41.449 C 121.946 39.150, 121.695 36.613, 117.043 27.366 C 113.287 19.900, 104.907 9, 102.922 9 C 102.370 9, 102 32.615, 102 67.937 M 90.330 14.228 C 85.316 19.415, 80.756 26.833, 78.581 33.340 L 76.963 38.179 81.911 43.593 C 88.726 51.049, 91.206 57.850, 91.770 70.620 C 92.486 86.818, 89.029 95.263, 79.624 100.294 C 76.017 102.223, 73.995 102.496, 63.500 102.471 L 51.500 102.442 40.067 97.221 C 33.780 94.349, 27.973 92, 27.164 92 C 24.152 92, 15.374 96.982, 11.684 100.786 C 6.250 106.387, 5.002 113.935, 7.370 126.877 C 9.683 139.521, 14.769 148.140, 24.333 155.623 C 28.112 158.581, 31.777 161, 32.477 161 C 33.176 161, 35.718 160.295, 38.124 159.433 C 46.472 156.444, 57.555 160.252, 61.185 167.355 C 63.044 170.993, 63.286 173.065, 63.163 184.297 C 63.086 191.335, 62.550 200.060, 61.970 203.687 C 60.501 212.882, 55.657 224.872, 51.404 229.841 L 47.819 234.029 50.466 243.264 C 54.512 257.380, 61.122 268, 65.862 268 C 67.074 268, 67.169 262.308, 66.518 228.750 C 66.099 207.162, 65.474 183.002, 65.128 175.060 L 64.500 160.620 54 157.982 C 30.901 152.178, 25.013 148.951, 19.696 139.183 C 16.434 133.189, 13 120.424, 13 114.290 C 13 109.418, 15.064 104.573, 17.545 103.621 C 23.788 101.226, 36.114 104.332, 66.094 115.856 C 78.967 120.804, 90.669 125.143, 92.097 125.497 C 94.687 126.138, 94.697 126.117, 95.347 118.419 C 96.218 108.123, 96.052 13.986, 95.159 11.728 C 94.557 10.206, 93.877 10.558, 90.330 14.228 M 7.012 153.642 C 7.019 155.764, 7.689 164.998, 8.502 174.162 C 9.633 186.917, 10.596 192.545, 12.611 198.162 C 16.234 208.265, 17.762 211.029, 19.380 210.408 C 20.354 210.034, 20.622 210.545, 20.316 212.192 C 20.008 213.845, 22.162 217.906, 27.902 226.500 C 32.311 233.100, 37.091 239.850, 38.524 241.500 L 41.130 244.500 40.540 237.781 L 39.951 231.062 44.251 226.699 C 49.095 221.786, 53.460 211.941, 55.021 202.407 C 56.092 195.865, 56.321 174.799, 55.359 171.210 C 54.667 168.627, 51.101 166.475, 45.965 165.542 C 43.477 165.089, 41.383 165.488, 38.539 166.956 C 36.360 168.080, 33.842 169, 32.944 169 C 30.444 169, 20.222 162.031, 13.250 155.574 L 7 149.785 7.012 153.642 M 184.726 155.516 C 177.728 162.111, 167.787 169, 165.266 169 C 164.252 169, 161.640 168.080, 159.461 166.956 C 152.562 163.395, 143.578 166.403, 142.403 172.666 C 141.269 178.711, 142.699 202.933, 144.548 209 C 146.900 216.714, 151.623 225.728, 153.972 226.985 C 157.305 228.769, 158.008 231.290, 157.154 238.387 C 156.716 242.024, 156.615 244.992, 156.929 244.982 C 157.921 244.951, 170.262 227.427, 176.280 217.503 C 179.459 212.262, 183.426 204.491, 185.096 200.236 C 188.377 191.880, 190.098 181, 188.139 181 C 186.590 181, 186.705 179.438, 188.378 177.765 C 189.269 176.874, 189.995 172.694, 190.430 165.943 C 190.801 160.199, 191.342 154.262, 191.632 152.750 C 191.922 151.238, 191.786 150.016, 191.329 150.036 C 190.873 150.057, 187.902 152.522, 184.726 155.516 M 183.430 161.336 C 177.566 166.312, 169.047 171.950, 166.378 172.620 C 164.890 172.993, 162.709 172.436, 160.454 171.106 C 153.751 167.151, 146.616 168.903, 145.514 174.774 C 144.594 179.683, 145.865 199.311, 147.553 206.235 C 149.418 213.888, 153.434 221.600, 157.597 225.527 C 159.570 227.388, 161.015 229.737, 161.036 231.118 C 161.071 233.467, 161.106 233.459, 163.565 230.500 C 171.265 221.233, 185 194.980, 185 189.527 C 185 188.516, 182.404 189.817, 177.129 193.471 C 172.799 196.470, 168.983 198.650, 168.648 198.314 C 167.605 197.271, 172.347 189.876, 174.989 188.425 C 182.456 184.326, 186.478 176.387, 187.237 164.250 C 187.452 160.813, 187.567 158, 187.494 158 C 187.420 158, 185.591 159.501, 183.430 161.336 M 10.997 160.628 C 10.982 170.413, 13.539 190.434, 15.516 196 C 19.340 206.773, 18.979 206.249, 22.143 205.593 C 23.714 205.267, 26.350 204.724, 28 204.387 C 31.778 203.614, 31.792 204.463, 28.053 207.608 C 23.110 211.768, 23.276 213.041, 30.147 223.647 L 36.418 233.327 37.235 230.175 C 37.684 228.440, 39.449 226.005, 41.159 224.761 C 44.616 222.246, 48.954 213.556, 50.982 205.088 C 52.641 198.156, 52.934 172.559, 51.371 170.982 C 49.119 168.708, 42.620 168.664, 38.458 170.894 C 36.298 172.052, 33.938 173, 33.215 173 C 31.171 173, 26.015 170.084, 20.122 165.596 C 10.424 158.209, 11 158.523, 10.997 160.628" stroke="none" fill="#1b2020" fill-rule="evenodd"/><path d="M 80.450 6.904 C 79.927 7.401, 70.731 12.404, 60.014 18.022 C 37.866 29.631, 30.109 34.813, 23.088 42.691 C 13.841 53.065, 7 70.347, 7 83.331 L 7 90.168 11.030 86.834 C 18.355 80.775, 21.266 79, 23.880 79 C 25.301 79, 31.872 81.654, 38.482 84.897 C 45.092 88.141, 52.300 91.288, 54.500 91.892 C 60.342 93.494, 69.353 93.243, 74.096 91.345 C 79.335 89.249, 81.079 85.386, 81.704 74.500 C 82.339 63.429, 79.913 56.686, 72.498 48.913 C 67.750 43.935, 67 42.614, 67 39.231 C 67 31.803, 73.425 17.590, 80.682 8.966 C 82.938 6.284, 82.761 4.705, 80.450 6.904 M 116.617 7.100 C 117.103 7.870, 119.686 11.804, 122.358 15.842 C 129.604 26.793, 133.324 38.641, 130.932 43.145 C 130.244 44.440, 127.754 47.202, 125.400 49.282 C 119.286 54.685, 116.621 61.963, 116.710 73.016 C 116.829 87.915, 120.048 91.989, 132.310 92.760 C 140.926 93.301, 147.152 91.451, 162.303 83.848 C 174.716 77.619, 176.720 77.717, 185.044 84.957 C 188.233 87.731, 191.169 90, 191.569 90 C 191.969 90, 192.020 86.411, 191.681 82.025 C 190.531 67.100, 182.966 50.050, 173.151 40.257 C 168.792 35.908, 155.136 26, 153.501 26 C 153.122 26, 152.967 32.431, 153.156 40.291 C 153.484 53.903, 153.646 54.877, 156.580 60.791 C 159.161 65.995, 159.391 67, 158.004 67 C 155.437 67, 152.514 63.163, 149.113 55.332 C 146.156 48.523, 146 47.514, 146 35.151 L 146 22.137 136.250 16.931 C 130.887 14.068, 124.077 10.370, 121.116 8.713 C 118.156 7.056, 116.131 6.330, 116.617 7.100 M 102 67.937 L 102 126.873 110.250 124.037 C 114.787 122.477, 126.814 117.974, 136.975 114.031 C 165.570 102.935, 177.736 100.645, 182.545 105.455 C 189.048 111.957, 182.662 137.846, 172.307 146.961 C 167.524 151.171, 158.279 154.691, 142 158.500 C 137.875 159.466, 134.198 160.536, 133.830 160.878 C 132.679 161.946, 130.626 267.026, 131.734 268.134 C 133.428 269.828, 139.656 262.881, 143.347 255.180 C 145.236 251.238, 147.561 244.830, 148.515 240.940 L 150.248 233.868 147.684 231.184 C 144.654 228.013, 139.434 217.195, 137.350 209.768 C 136.489 206.699, 135.637 197.821, 135.310 188.500 C 134.854 175.497, 135.033 171.822, 136.268 168.882 C 138.269 164.118, 143.409 160.320, 149.674 158.976 C 153.991 158.051, 155.607 158.181, 160.560 159.853 L 166.377 161.817 174.718 153.247 C 179.305 148.534, 185.020 141.488, 187.418 137.589 C 191.325 131.236, 191.900 129.487, 192.963 120.733 C 194.042 111.846, 193.985 110.635, 192.324 107.281 C 190.566 103.727, 186.017 99.835, 177.419 94.527 C 173.441 92.072, 173.208 92.046, 168.281 93.509 C 165.500 94.335, 160.586 96.191, 157.362 97.634 C 148.643 101.536, 142.356 102.976, 134 102.983 C 120.432 102.994, 114.173 99.846, 109.609 90.716 C 105.549 82.595, 104.795 69.317, 107.828 59.359 C 110.230 51.471, 114.727 43.881, 118.437 41.449 C 121.946 39.150, 121.695 36.613, 117.043 27.366 C 113.287 19.900, 104.907 9, 102.922 9 C 102.370 9, 102 32.615, 102 67.937 M 90.330 14.228 C 85.316 19.415, 80.756 26.833, 78.581 33.340 L 76.963 38.179 81.911 43.593 C 88.726 51.049, 91.206 57.850, 91.770 70.620 C 92.486 86.818, 89.029 95.263, 79.624 100.294 C 76.017 102.223, 73.995 102.496, 63.500 102.471 L 51.500 102.442 40.067 97.221 C 33.780 94.349, 27.973 92, 27.164 92 C 24.152 92, 15.374 96.982, 11.684 100.786 C 6.250 106.387, 5.002 113.935, 7.370 126.877 C 9.683 139.521, 14.769 148.140, 24.333 155.623 C 28.112 158.581, 31.777 161, 32.477 161 C 33.176 161, 35.718 160.295, 38.124 159.433 C 46.472 156.444, 57.555 160.252, 61.185 167.355 C 63.044 170.993, 63.286 173.065, 63.163 184.297 C 63.086 191.335, 62.550 200.060, 61.970 203.687 C 60.501 212.882, 55.657 224.872, 51.404 229.841 L 47.819 234.029 50.466 243.264 C 54.512 257.380, 61.122 268, 65.862 268 C 67.074 268, 67.169 262.308, 66.518 228.750 C 66.099 207.162, 65.474 183.002, 65.128 175.060 L 64.500 160.620 54 157.982 C 30.901 152.178, 25.013 148.951, 19.696 139.183 C 16.434 133.189, 13 120.424, 13 114.290 C 13 109.418, 15.064 104.573, 17.545 103.621 C 23.788 101.226, 36.114 104.332, 66.094 115.856 C 78.967 120.804, 90.669 125.143, 92.097 125.497 C 94.687 126.138, 94.697 126.117, 95.347 118.419 C 96.218 108.123, 96.052 13.986, 95.159 11.728 C 94.557 10.206, 93.877 10.558, 90.330 14.228 M 183.430 161.336 C 177.566 166.312, 169.047 171.950, 166.378 172.620 C 164.890 172.993, 162.709 172.436, 160.454 171.106 C 153.751 167.151, 146.616 168.903, 145.514 174.774 C 144.594 179.683, 145.865 199.311, 147.553 206.235 C 149.418 213.888, 153.434 221.600, 157.597 225.527 C 159.570 227.388, 161.015 229.737, 161.036 231.118 C 161.071 233.467, 161.106 233.459, 163.565 230.500 C 171.265 221.233, 185 194.980, 185 189.527 C 185 188.516, 182.404 189.817, 177.129 193.471 C 172.799 196.470, 168.983 198.650, 168.648 198.314 C 167.605 197.271, 172.347 189.876, 174.989 188.425 C 182.456 184.326, 186.478 176.387, 187.237 164.250 C 187.452 160.813, 187.567 158, 187.494 158 C 187.420 158, 185.591 159.501, 183.430 161.336 M 10.997 160.628 C 10.982 170.413, 13.539 190.434, 15.516 196 C 19.340 206.773, 18.979 206.249, 22.143 205.593 C 23.714 205.267, 26.350 204.724, 28 204.387 C 31.778 203.614, 31.792 204.463, 28.053 207.608 C 23.110 211.768, 23.276 213.041, 30.147 223.647 L 36.418 233.327 37.235 230.175 C 37.684 228.440, 39.449 226.005, 41.159 224.761 C 44.616 222.246, 48.954 213.556, 50.982 205.088 C 52.641 198.156, 52.934 172.559, 51.371 170.982 C 49.119 168.708, 42.620 168.664, 38.458 170.894 C 36.298 172.052, 33.938 173, 33.215 173 C 31.171 173, 26.015 170.084, 20.122 165.596 C 10.424 158.209, 11 158.523, 10.997 160.628" stroke="none" fill="#04b3d0" fill-rule="evenodd"/></svg>